<svg width="143" height="123" viewBox="0 0 143 123" fill="none" xmlns="http://www.w3.org/2000/svg">
<ellipse cx="62.4433" cy="61.5" rx="62.4433" ry="61.5" fill="white"/>
<path d="M49.5 71.9375C49.5 72.8125 49.4688 73.6771 49.4062 74.5312C49.3438 75.3646 49.1562 76.1146 48.8438 76.7812C48.5312 77.4479 48.0625 77.9896 47.4375 78.4062C46.8125 78.8021 45.9375 79 44.8125 79C43.6667 79 42.7708 78.8125 42.125 78.4375C41.4792 78.0417 41 77.5729 40.6875 77.0312C40.375 76.4688 40.1771 75.8854 40.0938 75.2812C40.0312 74.6771 40 74.1667 40 73.75C39.8125 74.3542 39.5417 74.9688 39.1875 75.5938C38.8542 76.2188 38.4167 76.7812 37.875 77.2812C37.3333 77.7812 36.6771 78.1979 35.9062 78.5312C35.1562 78.8438 34.2708 79 33.25 79C32.1042 79 30.9583 78.8125 29.8125 78.4375C28.6667 78.0625 27.6354 77.4375 26.7188 76.5625C25.8021 75.6875 25.0521 74.5521 24.4688 73.1562C23.9062 71.7396 23.625 70 23.625 67.9375V58.875C23.625 56.7917 23.9062 55.0521 24.4688 53.6562C25.0521 52.2396 25.8021 51.1042 26.7188 50.25C27.6354 49.375 28.6667 48.75 29.8125 48.375C30.9583 48 32.1042 47.8125 33.25 47.8125C34.2708 47.8125 35.1562 47.9688 35.9062 48.2812C36.6771 48.5938 37.3333 49 37.875 49.5C38.4167 50 38.8542 50.5625 39.1875 51.1875C39.5417 51.8125 39.8125 52.4375 40 53.0625C40 52.0208 40.1458 51.1562 40.4375 50.4688C40.7292 49.7812 41.1042 49.2396 41.5625 48.8438C42.0208 48.4271 42.5312 48.1458 43.0938 48C43.6771 47.8333 44.25 47.75 44.8125 47.75C45.8542 47.75 46.6875 47.9583 47.3125 48.375C47.9375 48.7708 48.4062 49.3021 48.7188 49.9688C49.0521 50.6146 49.2604 51.375 49.3438 52.25C49.4479 53.1042 49.5 53.9792 49.5 54.875V71.9375ZM33.25 67.125C33.25 67.6875 33.2708 68.2396 33.3125 68.7812C33.3542 69.3229 33.4688 69.8125 33.6562 70.25C33.8438 70.6875 34.1146 71.0417 34.4688 71.3125C34.8438 71.5625 35.3542 71.6875 36 71.6875C36.8125 71.6875 37.4688 71.5104 37.9688 71.1562C38.4896 70.7812 38.8958 70.2188 39.1875 69.4688C39.4792 68.6979 39.6771 67.7396 39.7812 66.5938C39.9062 65.4271 39.9792 64.0417 40 62.4375C40 61.7917 39.9375 61.0521 39.8125 60.2188C39.7083 59.3646 39.5104 58.5625 39.2188 57.8125C38.9271 57.0625 38.5208 56.4271 38 55.9062C37.4792 55.3854 36.8125 55.125 36 55.125C35.3542 55.125 34.8438 55.2604 34.4688 55.5312C34.1146 55.7812 33.8438 56.1146 33.6562 56.5312C33.4688 56.9479 33.3542 57.4271 33.3125 57.9688C33.2708 58.4896 33.25 59.0208 33.25 59.5625V67.125ZM57.25 42.1875C57.25 41.3125 57.2917 40.4583 57.375 39.625C57.4792 38.7917 57.6979 38.0521 58.0312 37.4062C58.3646 36.7604 58.8438 36.2396 59.4688 35.8438C60.0938 35.4479 60.9375 35.25 62 35.25C63.0833 35.25 63.9375 35.4479 64.5625 35.8438C65.1875 36.2396 65.6562 36.7604 65.9688 37.4062C66.3021 38.0521 66.5104 38.7917 66.5938 39.625C66.6979 40.4583 66.75 41.3125 66.75 42.1875V72C66.75 72.875 66.6979 73.7396 66.5938 74.5938C66.5104 75.4271 66.3021 76.1771 65.9688 76.8438C65.6562 77.4896 65.1875 78.0104 64.5625 78.4062C63.9375 78.8021 63.0833 79 62 79C60.9375 79 60.0938 78.8021 59.4688 78.4062C58.8438 78.0104 58.3646 77.4896 58.0312 76.8438C57.6979 76.1771 57.4792 75.4271 57.375 74.5938C57.2917 73.7396 57.25 72.875 57.25 72V42.1875ZM99.6875 71.9375C99.6875 72.8125 99.6562 73.6771 99.5938 74.5312C99.5312 75.3646 99.3438 76.1146 99.0312 76.7812C98.7188 77.4479 98.25 77.9896 97.625 78.4062C97 78.8021 96.125 79 95 79C93.8542 79 92.9583 78.8125 92.3125 78.4375C91.6667 78.0417 91.1875 77.5729 90.875 77.0312C90.5625 76.4688 90.3646 75.8854 90.2812 75.2812C90.2188 74.6771 90.1875 74.1667 90.1875 73.75C90 74.3542 89.7292 74.9688 89.375 75.5938C89.0417 76.2188 88.6042 76.7812 88.0625 77.2812C87.5208 77.7812 86.8646 78.1979 86.0938 78.5312C85.3438 78.8438 84.4583 79 83.4375 79C82.2917 79 81.1458 78.8125 80 78.4375C78.8542 78.0625 77.8229 77.4375 76.9062 76.5625C75.9896 75.6875 75.2396 74.5521 74.6562 73.1562C74.0938 71.7396 73.8125 70 73.8125 67.9375V58.875C73.8125 56.7917 74.0938 55.0521 74.6562 53.6562C75.2396 52.2396 75.9896 51.1042 76.9062 50.25C77.8229 49.375 78.8542 48.75 80 48.375C81.1458 48 82.2917 47.8125 83.4375 47.8125C84.4583 47.8125 85.3438 47.9688 86.0938 48.2812C86.8646 48.5938 87.5208 49 88.0625 49.5C88.6042 50 89.0417 50.5625 89.375 51.1875C89.7292 51.8125 90 52.4375 90.1875 53.0625C90.1875 52.0208 90.3333 51.1562 90.625 50.4688C90.9167 49.7812 91.2917 49.2396 91.75 48.8438C92.2083 48.4271 92.7188 48.1458 93.2812 48C93.8646 47.8333 94.4375 47.75 95 47.75C96.0417 47.75 96.875 47.9583 97.5 48.375C98.125 48.7708 98.5938 49.3021 98.9062 49.9688C99.2396 50.6146 99.4479 51.375 99.5312 52.25C99.6354 53.1042 99.6875 53.9792 99.6875 54.875V71.9375ZM83.4375 67.125C83.4375 67.6875 83.4583 68.2396 83.5 68.7812C83.5417 69.3229 83.6562 69.8125 83.8438 70.25C84.0312 70.6875 84.3021 71.0417 84.6562 71.3125C85.0312 71.5625 85.5417 71.6875 86.1875 71.6875C87 71.6875 87.6562 71.5104 88.1562 71.1562C88.6771 70.7812 89.0833 70.2188 89.375 69.4688C89.6667 68.6979 89.8646 67.7396 89.9688 66.5938C90.0938 65.4271 90.1667 64.0417 90.1875 62.4375C90.1875 61.7917 90.125 61.0521 90 60.2188C89.8958 59.3646 89.6979 58.5625 89.4062 57.8125C89.1146 57.0625 88.7083 56.4271 88.1875 55.9062C87.6667 55.3854 87 55.125 86.1875 55.125C85.5417 55.125 85.0312 55.2604 84.6562 55.5312C84.3021 55.7812 84.0312 56.1146 83.8438 56.5312C83.6562 56.9479 83.5417 57.4271 83.5 57.9688C83.4583 58.4896 83.4375 59.0208 83.4375 59.5625V67.125Z" fill="#6739BA"/>
</svg>
