<svg width="37" height="36" viewBox="0 0 37 36" fill="none" xmlns="http://www.w3.org/2000/svg">
<ellipse cx="18.5" cy="18" rx="18.5" ry="18" fill="white"/>
<path d="M15.125 21.2344C15.125 21.4531 15.1172 21.6693 15.1016 21.8828C15.0859 22.0911 15.0391 22.2786 14.9609 22.4453C14.8828 22.612 14.7656 22.7474 14.6094 22.8516C14.4531 22.9505 14.2344 23 13.9531 23C13.6667 23 13.4427 22.9531 13.2812 22.8594C13.1198 22.7604 13 22.6432 12.9219 22.5078C12.8438 22.3672 12.7943 22.2214 12.7734 22.0703C12.7578 21.9193 12.75 21.7917 12.75 21.6875C12.7031 21.8385 12.6354 21.9922 12.5469 22.1484C12.4635 22.3047 12.3542 22.4453 12.2188 22.5703C12.0833 22.6953 11.9193 22.7995 11.7266 22.8828C11.5391 22.9609 11.3177 23 11.0625 23C10.776 23 10.4896 22.9531 10.2031 22.8594C9.91667 22.7656 9.65885 22.6094 9.42969 22.3906C9.20052 22.1719 9.01302 21.888 8.86719 21.5391C8.72656 21.1849 8.65625 20.75 8.65625 20.2344V17.9688C8.65625 17.4479 8.72656 17.013 8.86719 16.6641C9.01302 16.3099 9.20052 16.026 9.42969 15.8125C9.65885 15.5938 9.91667 15.4375 10.2031 15.3438C10.4896 15.25 10.776 15.2031 11.0625 15.2031C11.3177 15.2031 11.5391 15.2422 11.7266 15.3203C11.9193 15.3984 12.0833 15.5 12.2188 15.625C12.3542 15.75 12.4635 15.8906 12.5469 16.0469C12.6354 16.2031 12.7031 16.3594 12.75 16.5156C12.75 16.2552 12.7865 16.0391 12.8594 15.8672C12.9323 15.6953 13.026 15.5599 13.1406 15.4609C13.2552 15.3568 13.3828 15.2865 13.5234 15.25C13.6693 15.2083 13.8125 15.1875 13.9531 15.1875C14.2135 15.1875 14.4219 15.2396 14.5781 15.3438C14.7344 15.4427 14.8516 15.5755 14.9297 15.7422C15.013 15.9036 15.0651 16.0938 15.0859 16.3125C15.112 16.526 15.125 16.7448 15.125 16.9688V21.2344ZM11.0625 20.0312C11.0625 20.1719 11.0677 20.3099 11.0781 20.4453C11.0885 20.5807 11.1172 20.7031 11.1641 20.8125C11.2109 20.9219 11.2786 21.0104 11.3672 21.0781C11.4609 21.1406 11.5885 21.1719 11.75 21.1719C11.9531 21.1719 12.1172 21.1276 12.2422 21.0391C12.3724 20.9453 12.474 20.8047 12.5469 20.6172C12.6198 20.4245 12.6693 20.1849 12.6953 19.8984C12.7266 19.6068 12.7448 19.2604 12.75 18.8594C12.75 18.6979 12.7344 18.513 12.7031 18.3047C12.6771 18.0911 12.6276 17.8906 12.5547 17.7031C12.4818 17.5156 12.3802 17.3568 12.25 17.2266C12.1198 17.0964 11.9531 17.0312 11.75 17.0312C11.5885 17.0312 11.4609 17.0651 11.3672 17.1328C11.2786 17.1953 11.2109 17.2786 11.1641 17.3828C11.1172 17.487 11.0885 17.6068 11.0781 17.7422C11.0677 17.8724 11.0625 18.0052 11.0625 18.1406V20.0312ZM17.0625 13.7969C17.0625 13.5781 17.0729 13.3646 17.0938 13.1562C17.1198 12.9479 17.1745 12.763 17.2578 12.6016C17.3411 12.4401 17.4609 12.3099 17.6172 12.2109C17.7734 12.112 17.9844 12.0625 18.25 12.0625C18.5208 12.0625 18.7344 12.112 18.8906 12.2109C19.0469 12.3099 19.1641 12.4401 19.2422 12.6016C19.3255 12.763 19.3776 12.9479 19.3984 13.1562C19.4245 13.3646 19.4375 13.5781 19.4375 13.7969V21.25C19.4375 21.4688 19.4245 21.6849 19.3984 21.8984C19.3776 22.1068 19.3255 22.2943 19.2422 22.4609C19.1641 22.6224 19.0469 22.7526 18.8906 22.8516C18.7344 22.9505 18.5208 23 18.25 23C17.9844 23 17.7734 22.9505 17.6172 22.8516C17.4609 22.7526 17.3411 22.6224 17.2578 22.4609C17.1745 22.2943 17.1198 22.1068 17.0938 21.8984C17.0729 21.6849 17.0625 21.4688 17.0625 21.25V13.7969ZM27.6719 21.2344C27.6719 21.4531 27.6641 21.6693 27.6484 21.8828C27.6328 22.0911 27.5859 22.2786 27.5078 22.4453C27.4297 22.612 27.3125 22.7474 27.1562 22.8516C27 22.9505 26.7812 23 26.5 23C26.2135 23 25.9896 22.9531 25.8281 22.8594C25.6667 22.7604 25.5469 22.6432 25.4688 22.5078C25.3906 22.3672 25.3411 22.2214 25.3203 22.0703C25.3047 21.9193 25.2969 21.7917 25.2969 21.6875C25.25 21.8385 25.1823 21.9922 25.0938 22.1484C25.0104 22.3047 24.901 22.4453 24.7656 22.5703C24.6302 22.6953 24.4661 22.7995 24.2734 22.8828C24.0859 22.9609 23.8646 23 23.6094 23C23.3229 23 23.0365 22.9531 22.75 22.8594C22.4635 22.7656 22.2057 22.6094 21.9766 22.3906C21.7474 22.1719 21.5599 21.888 21.4141 21.5391C21.2734 21.1849 21.2031 20.75 21.2031 20.2344V17.9688C21.2031 17.4479 21.2734 17.013 21.4141 16.6641C21.5599 16.3099 21.7474 16.026 21.9766 15.8125C22.2057 15.5938 22.4635 15.4375 22.75 15.3438C23.0365 15.25 23.3229 15.2031 23.6094 15.2031C23.8646 15.2031 24.0859 15.2422 24.2734 15.3203C24.4661 15.3984 24.6302 15.5 24.7656 15.625C24.901 15.75 25.0104 15.8906 25.0938 16.0469C25.1823 16.2031 25.25 16.3594 25.2969 16.5156C25.2969 16.2552 25.3333 16.0391 25.4062 15.8672C25.4792 15.6953 25.5729 15.5599 25.6875 15.4609C25.8021 15.3568 25.9297 15.2865 26.0703 15.25C26.2161 15.2083 26.3594 15.1875 26.5 15.1875C26.7604 15.1875 26.9688 15.2396 27.125 15.3438C27.2812 15.4427 27.3984 15.5755 27.4766 15.7422C27.5599 15.9036 27.612 16.0938 27.6328 16.3125C27.6589 16.526 27.6719 16.7448 27.6719 16.9688V21.2344ZM23.6094 20.0312C23.6094 20.1719 23.6146 20.3099 23.625 20.4453C23.6354 20.5807 23.6641 20.7031 23.7109 20.8125C23.7578 20.9219 23.8255 21.0104 23.9141 21.0781C24.0078 21.1406 24.1354 21.1719 24.2969 21.1719C24.5 21.1719 24.6641 21.1276 24.7891 21.0391C24.9193 20.9453 25.0208 20.8047 25.0938 20.6172C25.1667 20.4245 25.2161 20.1849 25.2422 19.8984C25.2734 19.6068 25.2917 19.2604 25.2969 18.8594C25.2969 18.6979 25.2812 18.513 25.25 18.3047C25.224 18.0911 25.1745 17.8906 25.1016 17.7031C25.0286 17.5156 24.9271 17.3568 24.7969 17.2266C24.6667 17.0964 24.5 17.0312 24.2969 17.0312C24.1354 17.0312 24.0078 17.0651 23.9141 17.1328C23.8255 17.1953 23.7578 17.2786 23.7109 17.3828C23.6641 17.487 23.6354 17.6068 23.625 17.7422C23.6146 17.8724 23.6094 18.0052 23.6094 18.1406V20.0312Z" fill="#6739BA"/>
</svg>
